<?xml version="1.0" encoding="UTF-8"?>
<svg width="512" height="512" viewBox="0 0 512 512" fill="none" xmlns="http://www.w3.org/2000/svg">
  <rect width="512" height="512" rx="256" fill="url(#paint0_linear)"/>
  <path d="M256 128C179.309 128 128 179.309 128 256C128 332.691 179.309 384 256 384C332.691 384 384 332.691 384 256C384 179.309 332.691 128 256 128ZM256 352C197.019 352 160 314.981 160 256C160 197.019 197.019 160 256 160C314.981 160 352 197.019 352 256C352 314.981 314.981 352 256 352Z" fill="white"/>
  <path d="M256 192C214.112 192 192 214.112 192 256C192 297.888 214.112 320 256 320C297.888 320 320 297.888 320 256C320 214.112 297.888 192 256 192ZM256 288C231.589 288 224 280.411 224 256C224 231.589 231.589 224 256 224C280.411 224 288 231.589 288 256C288 280.411 280.411 288 256 288Z" fill="white"/>
  <defs>
    <linearGradient id="paint0_linear" x1="0" y1="0" x2="512" y2="512" gradientUnits="userSpaceOnUse">
      <stop stop-color="#3B82F6"/>
      <stop offset="1" stop-color="#8B5CF6"/>
    </linearGradient>
  </defs>
</svg>
